<svg width="176" height="32" viewBox="0 0 176 32" fill="none" xmlns="http://www.w3.org/2000/svg">
<g clip-path="url(#clip0_1_1253)">
<path d="M0 8.42105C0 3.77023 3.77023 0 8.42105 0H23.5789C28.2298 0 32 3.77023 32 8.42105V23.5789C32 28.2298 28.2298 32 23.5789 32H8.42105C3.77023 32 0 28.2298 0 23.5789V8.42105Z" fill="#E03C3C"/>
<g filter="url(#filter0_d_1_1253)">
<path d="M8.42139 8.42127C8.42139 7.49111 9.17543 6.73706 10.1056 6.73706C11.0358 6.73706 11.7898 7.49111 11.7898 8.42127V23.5792C11.7898 24.5093 11.0358 25.2634 10.1056 25.2634C9.17543 25.2634 8.42139 24.5093 8.42139 23.5792V8.42127Z" fill="white"/>
</g>
<g opacity="0.9" filter="url(#filter1_d_1_1253)">
<path d="M14.7368 15.1576C14.7368 14.2274 15.4909 13.4734 16.421 13.4734C17.3512 13.4734 18.1052 14.2274 18.1052 15.1576V23.5786C18.1052 24.5088 17.3512 25.2629 16.421 25.2629C15.4909 25.2629 14.7368 24.5088 14.7368 23.5786V15.1576Z" fill="white"/>
</g>
<g opacity="0.7" filter="url(#filter2_d_1_1253)">
<path d="M21.0522 10.9469C21.0522 10.0167 21.8063 9.2627 22.7365 9.2627C23.6666 9.2627 24.4207 10.0167 24.4207 10.9469V23.5785C24.4207 24.5086 23.6666 25.2627 22.7365 25.2627C21.8063 25.2627 21.0522 24.5086 21.0522 23.5785V10.9469Z" fill="white"/>
</g>
<path d="M53.4072 23.5469H47.0059L45.7461 28H41.4102L48.3975 6.67188H52.1328L58.9883 28H54.6523L53.4072 23.5469ZM48.0166 20.0459H52.4404L50.2578 12.1943L48.0166 20.0459ZM76.6104 10.0264H70.0332V28H65.9023V10.0264H59.4131V6.67188H76.6104V10.0264ZM86.791 28.293C85.5703 28.293 84.4619 28.0928 83.4658 27.6924C82.4697 27.292 81.6152 26.7451 80.9023 26.0518C80.1895 25.3682 79.6377 24.5625 79.2471 23.6348C78.8662 22.6973 78.6758 21.6963 78.6758 20.6318V20.0459C78.6758 18.835 78.8662 17.7314 79.2471 16.7354C79.6279 15.7295 80.1602 14.8652 80.8438 14.1426C81.5273 13.4199 82.3379 12.8584 83.2754 12.458C84.2129 12.0576 85.2334 11.8574 86.3369 11.8574C87.4795 11.8574 88.4951 12.0479 89.3838 12.4287C90.2822 12.7998 91.0439 13.3271 91.6689 14.0107C92.2842 14.6943 92.7529 15.5195 93.0752 16.4863C93.3975 17.4434 93.5586 18.5029 93.5586 19.665V21.3936H82.8066V21.4375C82.9434 22.0723 83.1191 22.585 83.334 22.9756C83.5488 23.3564 83.8369 23.7031 84.1982 24.0156C84.5693 24.3379 84.9941 24.5869 85.4727 24.7627C85.9512 24.9385 86.4736 25.0264 87.04 25.0264C87.8408 25.0264 88.6172 24.875 89.3691 24.5723C90.1211 24.2695 90.7314 23.8154 91.2002 23.21L93.2363 25.4072C92.7188 26.1396 91.8984 26.8037 90.7754 27.3994C89.6523 27.9951 88.3242 28.293 86.791 28.293ZM86.3076 15.1533C85.8486 15.1533 85.4287 15.2363 85.0479 15.4023C84.667 15.5586 84.335 15.7881 84.0518 16.0908C83.7588 16.3936 83.5146 16.7549 83.3193 17.1748C83.124 17.5947 82.9775 18.0635 82.8799 18.5811H89.5596V18.2588C89.5596 17.8291 89.4814 17.4238 89.3252 17.043C89.1689 16.6621 88.9541 16.3301 88.6807 16.0469C88.4072 15.7734 88.0703 15.5586 87.6699 15.4023C87.2793 15.2363 86.8252 15.1533 86.3076 15.1533ZM107.343 23.6494C107.343 23.4053 107.284 23.1904 107.167 23.0049C107.06 22.8193 106.864 22.6436 106.581 22.4775C106.288 22.3213 105.902 22.1748 105.424 22.0381C104.945 21.9014 104.34 21.7646 103.607 21.6279C102.68 21.4424 101.83 21.2129 101.059 20.9395C100.297 20.6562 99.6426 20.3145 99.0957 19.9141C98.5488 19.5234 98.1191 19.0693 97.8066 18.5518C97.5039 18.0342 97.3525 17.4385 97.3525 16.7646C97.3525 16.1104 97.5088 15.4854 97.8213 14.8896C98.1338 14.2939 98.583 13.7715 99.1689 13.3223C99.7549 12.873 100.468 12.5166 101.308 12.2529C102.147 11.9893 103.095 11.8574 104.149 11.8574C105.253 11.8574 106.244 11.9893 107.123 12.2529C108.002 12.5068 108.749 12.8584 109.364 13.3076C109.97 13.7666 110.434 14.3086 110.756 14.9336C111.078 15.5586 111.239 16.2373 111.239 16.9697H107.167C107.167 16.7061 107.123 16.4619 107.035 16.2373C106.947 16.0029 106.815 15.793 106.64 15.6074C106.396 15.3633 106.063 15.168 105.644 15.0215C105.233 14.875 104.735 14.8018 104.149 14.8018C103.651 14.8018 103.217 14.8506 102.846 14.9482C102.475 15.0459 102.172 15.1826 101.938 15.3584C101.723 15.5146 101.557 15.7002 101.439 15.915C101.332 16.1201 101.278 16.3398 101.278 16.5742C101.278 16.8086 101.327 17.0283 101.425 17.2334C101.522 17.4287 101.698 17.6045 101.952 17.7607C102.196 17.9268 102.533 18.0781 102.963 18.2148C103.393 18.3418 103.939 18.4541 104.604 18.5518C105.561 18.708 106.449 18.9082 107.27 19.1523C108.09 19.3965 108.798 19.709 109.394 20.0898C109.989 20.4805 110.453 20.9541 110.785 21.5107C111.127 22.0576 111.298 22.7119 111.298 23.4736C111.298 24.1768 111.127 24.8262 110.785 25.4219C110.453 26.0078 109.979 26.5156 109.364 26.9453C108.739 27.375 107.987 27.7119 107.108 27.9561C106.229 28.1904 105.248 28.3076 104.164 28.3076C102.973 28.3076 101.918 28.1514 101 27.8389C100.092 27.5264 99.3301 27.1162 98.7148 26.6084C98.0996 26.1104 97.6309 25.5439 97.3086 24.9092C96.9961 24.2646 96.8398 23.6201 96.8398 22.9756H100.722C100.751 23.4053 100.868 23.7764 101.073 24.0889C101.278 24.3916 101.542 24.6357 101.864 24.8213C102.187 25.0166 102.553 25.1582 102.963 25.2461C103.383 25.334 103.812 25.3779 104.252 25.3779C104.779 25.3779 105.238 25.334 105.629 25.2461C106.029 25.1484 106.356 25.0215 106.61 24.8652C106.854 24.709 107.035 24.5283 107.152 24.3232C107.279 24.1182 107.343 23.8936 107.343 23.6494ZM122.606 8.26855V12.1504H128.524V15.1533H122.606V21.9648C122.606 22.541 122.67 23.0244 122.797 23.415C122.934 23.7959 123.124 24.0986 123.368 24.3232C123.612 24.5576 123.905 24.7236 124.247 24.8213C124.599 24.9189 124.989 24.9678 125.419 24.9678C125.731 24.9678 126.049 24.9531 126.371 24.9238C126.703 24.8945 127.021 24.8555 127.323 24.8066C127.616 24.7676 127.89 24.7236 128.144 24.6748C128.407 24.626 128.632 24.5771 128.817 24.5283L129.213 27.3262C128.93 27.4922 128.598 27.6387 128.217 27.7656C127.836 27.8828 127.431 27.9805 127.001 28.0586C126.571 28.1367 126.122 28.1953 125.653 28.2344C125.194 28.2832 124.74 28.3076 124.291 28.3076C123.422 28.3076 122.631 28.1953 121.918 27.9707C121.215 27.7363 120.614 27.375 120.116 26.8867C119.608 26.4082 119.218 25.7979 118.944 25.0557C118.671 24.3037 118.534 23.4053 118.534 22.3604V15.1533H114.916V12.1504H118.534V8.26855H122.606Z" fill="white"/>
</g>
<defs>
<filter id="filter0_d_1_1253" x="7.42139" y="6.23706" width="5.36841" height="20.5263" filterUnits="userSpaceOnUse" color-interpolation-filters="sRGB">
<feFlood flood-opacity="0" result="BackgroundImageFix"/>
<feColorMatrix in="SourceAlpha" type="matrix" values="0 0 0 0 0 0 0 0 0 0 0 0 0 0 0 0 0 0 127 0" result="hardAlpha"/>
<feOffset dy="0.5"/>
<feGaussianBlur stdDeviation="0.5"/>
<feComposite in2="hardAlpha" operator="out"/>
<feColorMatrix type="matrix" values="0 0 0 0 0 0 0 0 0 0 0 0 0 0 0 0 0 0 0.12 0"/>
<feBlend mode="normal" in2="BackgroundImageFix" result="effect1_dropShadow_1_1253"/>
<feBlend mode="normal" in="SourceGraphic" in2="effect1_dropShadow_1_1253" result="shape"/>
</filter>
<filter id="filter1_d_1_1253" x="13.7368" y="12.9734" width="5.36839" height="13.7895" filterUnits="userSpaceOnUse" color-interpolation-filters="sRGB">
<feFlood flood-opacity="0" result="BackgroundImageFix"/>
<feColorMatrix in="SourceAlpha" type="matrix" values="0 0 0 0 0 0 0 0 0 0 0 0 0 0 0 0 0 0 127 0" result="hardAlpha"/>
<feOffset dy="0.5"/>
<feGaussianBlur stdDeviation="0.5"/>
<feComposite in2="hardAlpha" operator="out"/>
<feColorMatrix type="matrix" values="0 0 0 0 0 0 0 0 0 0 0 0 0 0 0 0 0 0 0.12 0"/>
<feBlend mode="normal" in2="BackgroundImageFix" result="effect1_dropShadow_1_1253"/>
<feBlend mode="normal" in="SourceGraphic" in2="effect1_dropShadow_1_1253" result="shape"/>
</filter>
<filter id="filter2_d_1_1253" x="20.0522" y="8.7627" width="5.3685" height="18" filterUnits="userSpaceOnUse" color-interpolation-filters="sRGB">
<feFlood flood-opacity="0" result="BackgroundImageFix"/>
<feColorMatrix in="SourceAlpha" type="matrix" values="0 0 0 0 0 0 0 0 0 0 0 0 0 0 0 0 0 0 127 0" result="hardAlpha"/>
<feOffset dy="0.5"/>
<feGaussianBlur stdDeviation="0.5"/>
<feComposite in2="hardAlpha" operator="out"/>
<feColorMatrix type="matrix" values="0 0 0 0 0 0 0 0 0 0 0 0 0 0 0 0 0 0 0.12 0"/>
<feBlend mode="normal" in2="BackgroundImageFix" result="effect1_dropShadow_1_1253"/>
<feBlend mode="normal" in="SourceGraphic" in2="effect1_dropShadow_1_1253" result="shape"/>
</filter>
<clipPath id="clip0_1_1253">
<rect width="176" height="32" fill="white"/>
</clipPath>
</defs>
</svg>
